<svg xmlns="http://www.w3.org/2000/svg" class="chart-svg pie-svg" viewBox="0 0 1240 420" role="img" aria-label="Income and expense pie charts"><style>
  .chart-title { fill: #ffffff; font: 700 18px Arial, Helvetica, sans-serif; }
  .legend-label, .pie-legend-label { fill: #ffffff; font: 14px Arial, Helvetica, sans-serif; }
</style><text x="56" y="30" class="chart-title">Income</text><path d="M 206.0 210.0 L 206.0 88.0 A 122.0 122.0 0 0 1 293.8 294.7 Z" fill="#00a67e" stroke="#ffffff" stroke-width="2" data-tooltip="Income | courses | $36,070.00 (37.2%)" /><path d="M 206.0 210.0 L 293.8 294.7 A 122.0 122.0 0 0 1 175.3 328.1 Z" fill="#3b82f6" stroke="#ffffff" stroke-width="2" data-tooltip="Income | gear hire | $16,320.00 (16.8%)" /><path d="M 206.0 210.0 L 175.3 328.1 A 122.0 122.0 0 0 1 88.8 244.0 Z" fill="#635bff" stroke="#ffffff" stroke-width="2" data-tooltip="Income | memberships | $15,958.00 (16.5%)" /><path d="M 206.0 210.0 L 88.8 244.0 A 122.0 122.0 0 0 1 88.3 178.0 Z" fill="#f59e0b" stroke="#ffffff" stroke-width="2" data-tooltip="Income | misc | $8,444.22 (8.7%)" /><path d="M 206.0 210.0 L 88.3 178.0 A 122.0 122.0 0 0 1 118.8 124.7 Z" fill="#db5b7b" stroke="#ffffff" stroke-width="2" data-tooltip="Income | trips | $7,851.00 (8.1%)" /><path d="M 206.0 210.0 L 118.8 124.7 A 122.0 122.0 0 0 1 160.6 96.8 Z" fill="#0ea5e9" stroke="#ffffff" stroke-width="2" data-tooltip="Income | specialtrips | $6,412.00 (6.6%)" /><path d="M 206.0 210.0 L 160.6 96.8 A 122.0 122.0 0 0 1 191.2 88.9 Z" fill="#a855f7" stroke="#ffffff" stroke-width="2" data-tooltip="Income | air | $4,009.80 (4.1%)" /><path d="M 206.0 210.0 L 191.2 88.9 A 122.0 122.0 0 0 1 201.9 88.1 Z" fill="#14b8a6" stroke="#ffffff" stroke-width="2" data-tooltip="Income | merch | $1,355.00 (1.4%)" /><path d="M 206.0 210.0 L 201.9 88.1 A 122.0 122.0 0 0 1 206.0 88.0 Z" fill="#64748b" stroke="#ffffff" stroke-width="2" data-tooltip="Income | social | $515.47 (0.5%)" /><rect x="386" y="58" width="12" height="12" rx="3" fill="#00a67e" data-tooltip="Income | courses | $36,070.00" /><text x="404" y="68" class="legend-label pie-legend-label">courses $36,070.00</text><rect x="386" y="82" width="12" height="12" rx="3" fill="#3b82f6" data-tooltip="Income | gear hire | $16,320.00" /><text x="404" y="92" class="legend-label pie-legend-label">gear hire $16,320.00</text><rect x="386" y="106" width="12" height="12" rx="3" fill="#635bff" data-tooltip="Income | memberships | $15,958.00" /><text x="404" y="116" class="legend-label pie-legend-label">memberships $15,958.00</text><rect x="386" y="130" width="12" height="12" rx="3" fill="#f59e0b" data-tooltip="Income | misc | $8,444.22" /><text x="404" y="140" class="legend-label pie-legend-label">misc $8,444.22</text><rect x="386" y="154" width="12" height="12" rx="3" fill="#db5b7b" data-tooltip="Income | trips | $7,851.00" /><text x="404" y="164" class="legend-label pie-legend-label">trips $7,851.00</text><rect x="386" y="178" width="12" height="12" rx="3" fill="#0ea5e9" data-tooltip="Income | specialtrips | $6,412.00" /><text x="404" y="188" class="legend-label pie-legend-label">specialtrips $6,412.00</text><rect x="386" y="202" width="12" height="12" rx="3" fill="#a855f7" data-tooltip="Income | air | $4,009.80" /><text x="404" y="212" class="legend-label pie-legend-label">air $4,009.80</text><rect x="386" y="226" width="12" height="12" rx="3" fill="#14b8a6" data-tooltip="Income | merch | $1,355.00" /><text x="404" y="236" class="legend-label pie-legend-label">merch $1,355.00</text><rect x="386" y="250" width="12" height="12" rx="3" fill="#64748b" data-tooltip="Income | social | $515.47" /><text x="404" y="260" class="legend-label pie-legend-label">social $515.47</text><text x="650" y="30" class="chart-title">Expenses</text><path d="M 800.0 210.0 L 800.0 88.0 A 122.0 122.0 0 0 1 922.0 207.5 Z" fill="#00a67e" stroke="#ffffff" stroke-width="2" data-tooltip="Expenses | compressor | $27,772.50 (24.7%)" /><path d="M 800.0 210.0 L 922.0 207.5 A 122.0 122.0 0 0 1 825.2 329.4 Z" fill="#3b82f6" stroke="#ffffff" stroke-width="2" data-tooltip="Expenses | courses | $24,786.92 (22.0%)" /><path d="M 800.0 210.0 L 825.2 329.4 A 122.0 122.0 0 0 1 720.8 302.8 Z" fill="#635bff" stroke="#ffffff" stroke-width="2" data-tooltip="Expenses | gear | $16,375.94 (14.5%)" /><path d="M 800.0 210.0 L 720.8 302.8 A 122.0 122.0 0 0 1 678.2 217.0 Z" fill="#f59e0b" stroke="#ffffff" stroke-width="2" data-tooltip="Expenses | car/boat | $14,468.74 (12.9%)" /><path d="M 800.0 210.0 L 678.2 217.0 A 122.0 122.0 0 0 1 691.8 153.6 Z" fill="#db5b7b" stroke="#ffffff" stroke-width="2" data-tooltip="Expenses | gear servicing | $9,632.95 (8.6%)" /><path d="M 800.0 210.0 L 691.8 153.6 A 122.0 122.0 0 0 1 717.0 120.6 Z" fill="#0ea5e9" stroke="#ffffff" stroke-width="2" data-tooltip="Expenses | trips | $6,131.82 (5.4%)" /><path d="M 800.0 210.0 L 717.0 120.6 A 122.0 122.0 0 0 1 744.1 101.6 Z" fill="#a855f7" stroke="#ffffff" stroke-width="2" data-tooltip="Expenses | refunds | $4,872.36 (4.3%)" /><path d="M 800.0 210.0 L 744.1 101.6 A 122.0 122.0 0 0 1 767.8 92.3 Z" fill="#14b8a6" stroke="#ffffff" stroke-width="2" data-tooltip="Expenses | fees | $3,742.44 (3.3%)" /><path d="M 800.0 210.0 L 767.8 92.3 A 122.0 122.0 0 0 1 791.3 88.3 Z" fill="#64748b" stroke="#ffffff" stroke-width="2" data-tooltip="Expenses | social | $3,507.19 (3.1%)" /><path d="M 800.0 210.0 L 791.3 88.3 A 122.0 122.0 0 0 1 799.5 88.0 Z" fill="#00a67e" stroke="#ffffff" stroke-width="2" data-tooltip="Expenses | air | $1,206.78 (1.1%)" /><path d="M 800.0 210.0 L 799.5 88.0 A 122.0 122.0 0 0 1 800.0 88.0 Z" fill="#3b82f6" stroke="#ffffff" stroke-width="2" data-tooltip="Expenses | misc | $73.00 (0.1%)" /><rect x="980" y="58" width="12" height="12" rx="3" fill="#00a67e" data-tooltip="Expenses | compressor | $27,772.50" /><text x="998" y="68" class="legend-label pie-legend-label">compressor $27,772.50</text><rect x="980" y="82" width="12" height="12" rx="3" fill="#3b82f6" data-tooltip="Expenses | courses | $24,786.92" /><text x="998" y="92" class="legend-label pie-legend-label">courses $24,786.92</text><rect x="980" y="106" width="12" height="12" rx="3" fill="#635bff" data-tooltip="Expenses | gear | $16,375.94" /><text x="998" y="116" class="legend-label pie-legend-label">gear $16,375.94</text><rect x="980" y="130" width="12" height="12" rx="3" fill="#f59e0b" data-tooltip="Expenses | car/boat | $14,468.74" /><text x="998" y="140" class="legend-label pie-legend-label">car/boat $14,468.74</text><rect x="980" y="154" width="12" height="12" rx="3" fill="#db5b7b" data-tooltip="Expenses | gear servicing | $9,632.95" /><text x="998" y="164" class="legend-label pie-legend-label">gear servicing $9,632.95</text><rect x="980" y="178" width="12" height="12" rx="3" fill="#0ea5e9" data-tooltip="Expenses | trips | $6,131.82" /><text x="998" y="188" class="legend-label pie-legend-label">trips $6,131.82</text><rect x="980" y="202" width="12" height="12" rx="3" fill="#a855f7" data-tooltip="Expenses | refunds | $4,872.36" /><text x="998" y="212" class="legend-label pie-legend-label">refunds $4,872.36</text><rect x="980" y="226" width="12" height="12" rx="3" fill="#14b8a6" data-tooltip="Expenses | fees | $3,742.44" /><text x="998" y="236" class="legend-label pie-legend-label">fees $3,742.44</text><rect x="980" y="250" width="12" height="12" rx="3" fill="#64748b" data-tooltip="Expenses | social | $3,507.19" /><text x="998" y="260" class="legend-label pie-legend-label">social $3,507.19</text><rect x="980" y="274" width="12" height="12" rx="3" fill="#00a67e" data-tooltip="Expenses | air | $1,206.78" /><text x="998" y="284" class="legend-label pie-legend-label">air $1,206.78</text><rect x="980" y="298" width="12" height="12" rx="3" fill="#3b82f6" data-tooltip="Expenses | misc | $73.00" /><text x="998" y="308" class="legend-label pie-legend-label">misc $73.00</text></svg>